<svg id="instagram" xmlns="http://www.w3.org/2000/svg" width="24.818" height="24.819" viewBox="0 0 24.818 24.819">
  <path id="Path_5" data-name="Path 5" d="M12.214,5.838a6.368,6.368,0,1,0,6.368,6.368,6.367,6.367,0,0,0-6.368-6.368Zm0,10.5a4.133,4.133,0,1,1,4.133-4.133A4.132,4.132,0,0,1,12.214,16.339Z" transform="translate(0.2 0.198)" fill="#f8eeee"/>
  <path id="Path_6" data-name="Path 6" d="M17.526.079c-2.283-.107-7.939-.1-10.224,0A7.416,7.416,0,0,0,2.094,2.086C-.293,4.472.012,7.688.012,12.4c0,4.827-.269,7.969,2.082,10.319,2.4,2.395,5.659,2.082,10.319,2.082,4.782,0,6.432,0,8.123-.651,2.3-.892,4.034-2.947,4.2-6.638.108-2.284.1-7.939,0-10.224-.2-4.357-2.543-7-7.214-7.214ZM21.14,21.145C19.575,22.71,17.4,22.57,12.383,22.57c-5.17,0-7.244.077-8.757-1.44C1.884,19.4,2.2,16.611,2.2,12.388c0-5.713-.586-9.828,5.148-10.122C8.665,2.22,9.052,2.2,12.369,2.2l.047.031c5.511,0,9.834-.577,10.094,5.156.059,1.308.072,1.7.072,5.012,0,5.11.1,7.2-1.442,8.741Z" transform="translate(0 -0.001)" fill="#f8eeee"/>
  <ellipse id="Ellipse_1" data-name="Ellipse 1" cx="1.488" cy="1.488" rx="1.488" ry="1.488" transform="translate(17.546 4.297)" fill="#f8eeee"/>
</svg>
