<svg id="linkedin" xmlns="http://www.w3.org/2000/svg" width="22.455" height="22.455" viewBox="0 0 22.455 22.455">
  <path id="Path_7" data-name="Path 7" d="M23,22.942H23V14.706c0-4.029-.867-7.132-5.577-7.132a4.889,4.889,0,0,0-4.4,2.42h-.065V7.95H8.489V22.941h4.65V15.518c0-1.954.371-3.844,2.791-3.844,2.385,0,2.42,2.23,2.42,3.97v7.3Z" transform="translate(-0.547 -0.488)" fill="#f8eeee"/>
  <path id="Path_8" data-name="Path 8" d="M.4,7.977H5.052V22.968H.4Z" transform="translate(-0.025 -0.514)" fill="#f8eeee"/>
  <path id="Path_9" data-name="Path 9" d="M2.7,0a2.709,2.709,0,1,0,2.7,2.7A2.7,2.7,0,0,0,2.7,0Z" fill="#f8eeee"/>
</svg>
