<svg xmlns="http://www.w3.org/2000/svg" viewBox="0 0 207.04 38.73"><defs><style>.cls-1{fill:#00a2d7;}.cls-1,.cls-2,.cls-3{fill-rule:evenodd;}.cls-2{fill:#071688;}</style></defs><g id="Layer_2" data-name="Layer 2"><g id="Layer_1-2" data-name="Layer 1"><path class="cls-1" d="M2.22,2.4c3.2-3.2,9.2-2.82,15.58.4-.83.49-1.66,1-2.49,1.62a24.35,24.35,0,0,0-2.51-.94c-3.8-1.19-7-1-8.79.71s-1.9,5-.72,8.79a23.64,23.64,0,0,0,1,2.51c-.59.83-1.13,1.66-1.63,2.49C-.6,11.6-1,5.6,2.22,2.4ZM27.36,9.63,27,9.34h0l0,0,0,0-.1-.08,0,0,0,0h0l0,0,0,0,0,0,0,0,0,0,0,0,0,0,0,0,0,0h0l0,0,0,0h0l0,0,0,0h0l0,0,0,0h0l0,0,0,0h0l-.12-.1,0,0h0l0,0,0,0h0l0,0C25,7.5,24,6.71,23,6c-.36.17-.71.35-1.07.54V8.35c1,.73,1.94,1.53,2.9,2.39v6.4h2.54V13.23a34.1,34.1,0,0,1,7.89,12.7c1.19,3.8,1,7-.71,8.79s-5,1.9-8.79.72a27.43,27.43,0,0,1-5.21-2.3V24.46H18v7.09a40.21,40.21,0,0,1-4.27-3.38V19H11.19v6.66a42.57,42.57,0,0,1-3.92-4.83v0l-.06-.08,0-.08h0l0,0,0,0,0,0,0,0v0c-.46.78-.87,1.55-1.24,2.31a44.28,44.28,0,0,0,4.51,5.25c.29.29.58.58.88.86h0l.42.4,0,0h0L12,30l0,0,.08.07,0,0,0,0,.2.18,0,0,0,0,.16.14,0,0,0,0,0,0,0,0,0,0,0,0,0,0,.24.2,0,0,0,0,0,0,0,0,.32.26,0,0,0,0c8.66,7.06,18.24,9.36,22.6,5,5-4.95,1.33-16.6-8.09-26l-.88-.86ZM11.62,29.69l-.42-.4.42.4ZM20.53,7.35l0,0,0,0Z"/><path class="cls-2" d="M13.73,10.74v6.39H11.19v-3.9a34.14,34.14,0,0,0-7.9,12.7c-1.18,3.8-1,7,.72,8.79s5,1.9,8.79.72a24.49,24.49,0,0,0,2.51-.95c.83.59,1.66,1.13,2.49,1.63-6.38,3.21-12.38,3.59-15.58.39-4.95-4.95-1.33-16.6,8.09-26,.29-.29.58-.58.88-.86h0l.42-.4,0,0h0l.4-.36,0,0h0l0,0,.31-.28,0,0,.16-.13,0,0,0,0,.12-.11,0,0,0,0,0,0,.15-.12h0l0,0,0,0,0,0,0,0,0,0,.24-.2,0,0,0,0,0,0,0,0C22.39.33,32-2,36.33,2.4c3.2,3.2,2.82,9.2-.4,15.59-.49-.84-1-1.67-1.62-2.5A23.52,23.52,0,0,0,35.25,13c1.19-3.8,1-7-.71-8.79s-5-1.9-8.79-.71a26.81,26.81,0,0,0-5.21,2.3V22.56H18V7.36a41.54,41.54,0,0,0-4.27,3.38ZM27.36,19.1H24.82v9.07c-1,.87-1.93,1.66-2.9,2.4v1.82c.36.19.71.37,1.07.54,1.06-.78,2.11-1.62,3.15-2.53h0l0,0,0,0h0l0,0,0,0h0l0,0,0,0h0l0,0,0,0,0,0,0,0,0,0,0,0,0,0,0,0h0l0,0,0,0,0,0h0l0,0,0,0,0,0,0,0,0,0h0l0,0,0,0h0l0,0,0,0h0l0,0,.08-.07,0,0h0l.16-.15h0l.88-.86a44.28,44.28,0,0,0,4.51-5.25q-.6-1.23-1.35-2.49a41.26,41.26,0,0,1-4,5V19.1ZM20.53,31.61v-.05l0,0Z"/><path class="cls-3" d="M47.7,35a4.57,4.57,0,0,1-1.83-.89,1.69,1.69,0,0,1-.57-1.3A1.8,1.8,0,0,1,46,31.4a2.76,2.76,0,0,1,1.81-.57,3,3,0,0,1,1.37.3,2.14,2.14,0,0,1,.92.81,2.07,2.07,0,0,1,.33,1.13h-1A1.32,1.32,0,0,0,49,32a1.73,1.73,0,0,0-1.21-.39,1.78,1.78,0,0,0-1.12.32,1.06,1.06,0,0,0-.41.88,1,1,0,0,0,.39.77,3.78,3.78,0,0,0,1.31.58,6,6,0,0,1,1.44.57,2.09,2.09,0,0,1,.77.73,1.86,1.86,0,0,1,.26,1,1.76,1.76,0,0,1-.71,1.45,3,3,0,0,1-1.87.54,3.58,3.58,0,0,1-1.43-.29,2.46,2.46,0,0,1-1-.81,1.92,1.92,0,0,1-.36-1.15h1a1.28,1.28,0,0,0,.5,1.06,2.08,2.08,0,0,0,1.33.39,1.91,1.91,0,0,0,1.18-.32,1,1,0,0,0,.41-.86,1,1,0,0,0-.38-.84A4.19,4.19,0,0,0,47.7,35ZM59,36a2.71,2.71,0,0,1-.87,1.81,2.87,2.87,0,0,1-1.94.64,2.64,2.64,0,0,1-2.11-.94A3.85,3.85,0,0,1,53.31,35v-.71a4.35,4.35,0,0,1,.37-1.82,2.8,2.8,0,0,1,1-1.2,2.89,2.89,0,0,1,1.56-.42,2.7,2.7,0,0,1,1.9.66A2.8,2.8,0,0,1,59,33.31H58A2,2,0,0,0,57.48,32a1.65,1.65,0,0,0-1.19-.4,1.72,1.72,0,0,0-1.46.7,3.12,3.12,0,0,0-.53,2V35a3.22,3.22,0,0,0,.5,1.92,1.63,1.63,0,0,0,1.41.72,1.92,1.92,0,0,0,1.25-.37A2,2,0,0,0,58,36Zm4.25,2.34h-1V30.93h1v7.41Zm7.84-3.41H67.9v2.61h3.73v.8H66.92V30.93h4.66v.81H67.9v2.38h3.21v.81Zm9.3,3.41h-1L75.7,32.63v5.71h-1V30.93h1l3.74,5.74V30.93h1v7.41Zm9-2.34a2.71,2.71,0,0,1-.87,1.81,2.87,2.87,0,0,1-1.94.64,2.62,2.62,0,0,1-2.1-.94A3.79,3.79,0,0,1,83.76,35v-.71a4.35,4.35,0,0,1,.36-1.82,2.8,2.8,0,0,1,1-1.2,2.9,2.9,0,0,1,1.57-.42,2.65,2.65,0,0,1,1.89.66,2.75,2.75,0,0,1,.83,1.82h-1A2.15,2.15,0,0,0,87.93,32a1.66,1.66,0,0,0-1.19-.4,1.72,1.72,0,0,0-1.47.7,3.19,3.19,0,0,0-.53,2V35a3.29,3.29,0,0,0,.5,1.92,1.63,1.63,0,0,0,1.41.72,1.92,1.92,0,0,0,1.25-.37A2.07,2.07,0,0,0,88.48,36Zm7.39-1.07H93.64v2.61h3.73v.8H92.66V30.93h4.66v.81H93.64v2.38h3.21v.81Zm13.68-3.19h-2.38v6.6h-1v-6.6H104.8v-.81h5.73v.81Zm8.66,6.6h-1V34.93h-3.74v3.41h-1V30.93h1v3.19h3.74V30.93h1v7.41ZM127,36.41h-3.11l-.7,1.93h-1L125,30.93h.85l2.83,7.41h-1l-.7-1.93Zm-2.81-.81h2.52l-1.27-3.46-1.25,3.46ZM136,31.74h-2.38v6.6h-1v-6.6h-2.37v-.81H136v.81Zm8.91,3.71v2.89h-1V30.93h2.73a2.73,2.73,0,0,1,1.91.63,2.33,2.33,0,0,1,0,3.3,2.86,2.86,0,0,1-1.93.59Zm0-.81h1.75a1.73,1.73,0,0,0,1.2-.37,1.33,1.33,0,0,0,.42-1.06,1.39,1.39,0,0,0-.42-1.06,1.62,1.62,0,0,0-1.14-.41h-1.81v2.9Zm10.18.71h-1.74v3h-1V30.93h2.45a2.91,2.91,0,0,1,1.93.58,2,2,0,0,1,.67,1.66,2,2,0,0,1-.37,1.21,2.26,2.26,0,0,1-1,.76l1.74,3.14v.06h-1l-1.61-3Zm-1.74-.8h1.5a1.66,1.66,0,0,0,1.16-.38,1.3,1.3,0,0,0,.43-1,1.35,1.35,0,0,0-.41-1,1.69,1.69,0,0,0-1.18-.37h-1.5v2.81Zm13,.33a4.63,4.63,0,0,1-.36,1.9A2.78,2.78,0,0,1,165,38a2.82,2.82,0,0,1-1.57.43,2.76,2.76,0,0,1-2.6-1.66,4.27,4.27,0,0,1-.38-1.85v-.53a4.52,4.52,0,0,1,.37-1.89A2.92,2.92,0,0,1,165,31.26,2.77,2.77,0,0,1,166,32.51a4.67,4.67,0,0,1,.36,1.9v.47Zm-1-.48a3.26,3.26,0,0,0-.53-2,1.88,1.88,0,0,0-2.94,0,3.27,3.27,0,0,0-.54,1.95v.55a3.4,3.4,0,0,0,.53,2,1.76,1.76,0,0,0,1.48.72,1.73,1.73,0,0,0,1.47-.68,3.36,3.36,0,0,0,.53-2V34.4Zm9.29-2.66H172.3v6.6h-1v-6.6H169v-.81h5.73v.81Zm7.16,3.19h-3.21v2.61h3.73v.8h-4.71V30.93h4.66v.81h-3.68v2.38h3.21v.81Zm9,1.07a2.71,2.71,0,0,1-.87,1.81,2.85,2.85,0,0,1-1.94.64,2.62,2.62,0,0,1-2.1-.94,3.79,3.79,0,0,1-.79-2.53v-.71a4.35,4.35,0,0,1,.36-1.82,2.8,2.8,0,0,1,1-1.2,2.9,2.9,0,0,1,1.57-.42,2.67,2.67,0,0,1,1.89.66,2.75,2.75,0,0,1,.83,1.82h-1a2.15,2.15,0,0,0-.55-1.28,1.66,1.66,0,0,0-1.19-.4,1.72,1.72,0,0,0-1.47.7,3.19,3.19,0,0,0-.53,2V35a3.29,3.29,0,0,0,.5,1.92,1.63,1.63,0,0,0,1.41.72,1.92,1.92,0,0,0,1.25-.37,2.07,2.07,0,0,0,.58-1.28Zm8.17-4.26h-2.38v6.6h-1v-6.6h-2.38v-.81h5.73v.81Zm5.07,3.3a4.57,4.57,0,0,1-1.83-.89,1.69,1.69,0,0,1-.57-1.3,1.8,1.8,0,0,1,.7-1.45,2.79,2.79,0,0,1,1.82-.57,3,3,0,0,1,1.36.3,2.16,2.16,0,0,1,1.25,1.94h-1a1.32,1.32,0,0,0-.43-1,1.7,1.7,0,0,0-1.2-.39,1.81,1.81,0,0,0-1.13.32,1.06,1.06,0,0,0-.4.88.94.94,0,0,0,.38.77,3.88,3.88,0,0,0,1.31.58,5.8,5.8,0,0,1,1.44.57,2.21,2.21,0,0,1,.78.73,1.86,1.86,0,0,1,.25,1,1.78,1.78,0,0,1-.7,1.45,3,3,0,0,1-1.88.54,3.58,3.58,0,0,1-1.43-.29,2.46,2.46,0,0,1-1-.81,1.91,1.91,0,0,1-.35-1.15h1a1.27,1.27,0,0,0,.49,1.06,2.1,2.1,0,0,0,1.33.39,1.89,1.89,0,0,0,1.18-.32,1,1,0,0,0,.42-.86,1,1,0,0,0-.39-.84A4.19,4.19,0,0,0,204.13,35Z"/><path class="cls-2" d="M206.64,23.56a2.09,2.09,0,0,1-.62,1.56,2.07,2.07,0,0,1-1.55.62,2.43,2.43,0,0,1-2.1-1.21l-4-5.76H179.53l-4,5.78a1.77,1.77,0,0,1-1.39.95,2.43,2.43,0,0,1-1.43-.48,1.5,1.5,0,0,1-.77-1.24.7.7,0,0,1,.12-.4L186.24,1.72a3.29,3.29,0,0,1,3-1.32,2.26,2.26,0,0,1,2.1.88l.09.18a1.51,1.51,0,0,0,.15.26l15,21.25a1.46,1.46,0,0,1,.07.59Zm-10.86-8.47L189,5.07l-6.84,10Z"/><path class="cls-2" d="M207,23.56a2.59,2.59,0,0,1-.19,1,2.51,2.51,0,0,1-.55.83,2.83,2.83,0,0,1-.83.56,2.73,2.73,0,0,1-1,.18,2.7,2.7,0,0,1-1.37-.36,3.24,3.24,0,0,1-1.06-1l-3.85-5.59H179.74l-3.85,5.61a3.25,3.25,0,0,1-.78.82,1.66,1.66,0,0,1-.94.3,2.54,2.54,0,0,1-.86-.14,3.2,3.2,0,0,1-.8-.41,2.34,2.34,0,0,1-.68-.69h0a1.61,1.61,0,0,1-.26-.87,1.13,1.13,0,0,1,.05-.32,1.38,1.38,0,0,1,.14-.3L185.91,1.51A3,3,0,0,1,187.26.37a4.74,4.74,0,0,1,2-.37,3.75,3.75,0,0,1,1.46.25,2.06,2.06,0,0,1,1,.83l.05.1.06.11,0,.1.07.11,15,21.26v0a.86.86,0,0,1,.1.36,2.67,2.67,0,0,1,0,.42Zm-.92.71a1.76,1.76,0,0,0,.13-.71,2.33,2.33,0,0,0,0-.32v-.08l-15-21.22-.11-.17a1,1,0,0,1-.07-.15l0-.08,0-.06a1.24,1.24,0,0,0-.6-.5,3,3,0,0,0-1.16-.19,4,4,0,0,0-1.65.3,2.27,2.27,0,0,0-1,.85c0,.31-13.06,20.56-14.15,21.65l0,.1a.24.24,0,0,0,0,.09.83.83,0,0,0,.14.46h0a1.52,1.52,0,0,0,.46.45h0a2.19,2.19,0,0,0,.59.3,1.81,1.81,0,0,0,.61.1.84.84,0,0,0,.5-.17,2.37,2.37,0,0,0,.57-.6l4.09-6h19.28c1.33,1.94,2.69,4.07,4.09,5.95a2.44,2.44,0,0,0,.79.78,1.91,1.91,0,0,0,1,.25,1.75,1.75,0,0,0,.7-.13,1.63,1.63,0,0,0,.57-.38h0a1.63,1.63,0,0,0,.38-.57ZM195,14.7l-6-8.93L182.9,14.7Zm-5.73-9.85L189,4.37l-7.58,11.12h15.11Z"/><path class="cls-2" d="M169,9.88q0,3.33-3.51,4.87a17,17,0,0,1-6.41,1.13h-7.38l15,6.32a1.67,1.67,0,0,1,1.19,1.54c0,1-.88,1.51-2.64,1.51a6.46,6.46,0,0,1-1.65-.17l-20.45-8.72v7.29a1.4,1.4,0,0,1-1.57,1.6,5.69,5.69,0,0,1-1.92-.17,1.34,1.34,0,0,1-1-1.45V2.25A1.4,1.4,0,0,1,140.26.68h18a18.53,18.53,0,0,1,6.9,1.1c2.56,1,3.85,2.74,3.85,5.12v3Zm-4.46,0V6.82q0-2.46-6.3-2.46H143.14V12.2h15.94Q164.57,12.2,164.57,9.91Z"/><path class="cls-2" d="M169.42,9.88a5.15,5.15,0,0,1-.95,3.11,6.64,6.64,0,0,1-2.79,2.12h0a14.68,14.68,0,0,1-3.08.87,19.3,19.3,0,0,1-3.48.29h-5.44l13.18,5.57a2.55,2.55,0,0,1,1,.77,1.74,1.74,0,0,1,.38,1.13c0,1.27-1,1.9-3,1.9-.36,0-.68,0-1,0a4.78,4.78,0,0,1-.78-.14h0L143.54,17v6.69a2,2,0,0,1-.51,1.48,2,2,0,0,1-1.46.51c-.56,0-1,0-1.34,0a2.33,2.33,0,0,1-.73-.15,1.62,1.62,0,0,1-.9-.66,2,2,0,0,1-.31-1.16V2.25A2,2,0,0,1,138.8.8a2,2,0,0,1,1.46-.51h18a24.61,24.61,0,0,1,3.89.28,14.72,14.72,0,0,1,3.15.84,7.07,7.07,0,0,1,3.06,2.19,5.39,5.39,0,0,1,1,3.3v3Zm-1.59,2.65a4.36,4.36,0,0,0,.8-2.65v-3a4.59,4.59,0,0,0-.88-2.83A6.28,6.28,0,0,0,165,2.14h0a13.56,13.56,0,0,0-3-.79,23.79,23.79,0,0,0-3.76-.27h-18a1.24,1.24,0,0,0-.91.28,1.23,1.23,0,0,0-.27.89V23.63a1.32,1.32,0,0,0,.17.72.89.89,0,0,0,.51.36h.05l.05,0a2,2,0,0,0,.43.07c.31,0,.74,0,1.28,0a1.24,1.24,0,0,0,.9-.28,1.32,1.32,0,0,0,.28-.93V15.76l21,9a4.12,4.12,0,0,0,.62.11c.25,0,.55,0,.9,0,1.5,0,2.24-.38,2.24-1.12a1,1,0,0,0-.21-.65,1.81,1.81,0,0,0-.74-.53l-16.74-7.08h9.32a19.85,19.85,0,0,0,3.35-.27,14.47,14.47,0,0,0,2.91-.83,5.79,5.79,0,0,0,2.46-1.85Zm-3.65-2.62V6.82c0-.64-.45-1.14-1.33-1.48a13.39,13.39,0,0,0-4.58-.59H143.54v7.06h15.54a11,11,0,0,0,4-.54c.75-.32,1.13-.77,1.13-1.36ZM165,6.82a2.36,2.36,0,0,0-1.82-2.21h0A14,14,0,0,0,158.27,4H142.75V12.6h16.33a11.46,11.46,0,0,0,4.27-.61A2.21,2.21,0,0,0,165,9.91Z"/><path class="cls-2" d="M133.86,13c0,1.3-.56,1.95-1.67,1.95H110.64v4q0,2.61,5.74,2.61h15.81a1.39,1.39,0,0,1,1.57,1.58c0,1.39-.52,2.09-1.57,2.09h-16A16.33,16.33,0,0,1,109.74,24c-2.4-1.09-3.6-2.71-3.6-4.88V6.82q0-3.13,3.35-4.76a12.57,12.57,0,0,1,4.4-1.23,17.16,17.16,0,0,1,2.29-.15h16c1.05,0,1.57.7,1.57,2.09a1.4,1.4,0,0,1-1.57,1.59h-16q-4.56.24-5.42,1.81a1.91,1.91,0,0,0-.16.8V9.65h0v1.6h21.61C133.31,11.25,133.86,11.83,133.86,13Z"/><path class="cls-2" d="M134.26,13a2.58,2.58,0,0,1-.52,1.72,2,2,0,0,1-1.55.62H111V19a1.72,1.72,0,0,0,1.21,1.59,10.32,10.32,0,0,0,4.14.62h15.81a1.74,1.74,0,0,1,2,2,3,3,0,0,1-.47,1.8,1.73,1.73,0,0,1-1.49.68h-16a17.43,17.43,0,0,1-3.43-.32,15.22,15.22,0,0,1-3.16-1h0a7.07,7.07,0,0,1-2.86-2.16,5.08,5.08,0,0,1-1-3.08V6.82a5.11,5.11,0,0,1,.91-3,6.78,6.78,0,0,1,2.67-2.13,11.22,11.22,0,0,1,2.05-.8,17.2,17.2,0,0,1,2.47-.47c.39,0,.77-.08,1.16-.1s.79,0,1.18,0h16a1.76,1.76,0,0,1,1.49.68,3,3,0,0,1,.47,1.8,2,2,0,0,1-.5,1.47,2,2,0,0,1-1.46.51h-16a14,14,0,0,0-3.53.55,2.71,2.71,0,0,0-1.56,1,1.23,1.23,0,0,0-.09.29h0A1.72,1.72,0,0,0,111,7v3.08h0v.81h21.22a2,2,0,0,1,1.52.55,2.19,2.19,0,0,1,.53,1.57Zm-1.12,1.21a1.82,1.82,0,0,0,.33-1.21,1.4,1.4,0,0,0-.31-1,1.23,1.23,0,0,0-.95-.31h-22V9.26h0V7a2.83,2.83,0,0,1,.05-.5h0a2.06,2.06,0,0,1,.15-.46V6a3.39,3.39,0,0,1,2-1.42h0A14.27,14.27,0,0,1,116.2,4h16a1.23,1.23,0,0,0,.89-.27,1.27,1.27,0,0,0,.28-.92,2.23,2.23,0,0,0-.31-1.33,1,1,0,0,0-.86-.36h-16q-.59,0-1.14,0c-.38,0-.75.06-1.1.11h0a15.36,15.36,0,0,0-2.35.44,10,10,0,0,0-1.91.75h0a6,6,0,0,0-2.36,1.88,4.26,4.26,0,0,0-.77,2.53v12.3a4.26,4.26,0,0,0,.83,2.61,6.37,6.37,0,0,0,2.54,1.91,14.9,14.9,0,0,0,3,.91,17.38,17.38,0,0,0,3.28.31h16a1,1,0,0,0,.86-.37,2.21,2.21,0,0,0,.31-1.33A1,1,0,0,0,132.19,22H116.38a11.22,11.22,0,0,1-4.47-.69A2.45,2.45,0,0,1,110.24,19V14.53h22A1.18,1.18,0,0,0,133.14,14.19Z"/><path class="cls-2" d="M103.36,2.75a1.41,1.41,0,0,1-1.57,1.61H91.85v19.3a1.39,1.39,0,0,1-1.55,1.59,9.16,9.16,0,0,1-2-.12,1.36,1.36,0,0,1-1-1.48V4.36H77.53a1.42,1.42,0,0,1-1.59-1.61,3.26,3.26,0,0,1,.24-1.5A1.45,1.45,0,0,1,77.53.68h24.26C102.84.68,103.36,1.37,103.36,2.75Z"/><path class="cls-2" d="M103.76,2.75a2,2,0,0,1-.51,1.48,2,2,0,0,1-1.46.52H92.25V23.66a2,2,0,0,1-.5,1.47,2,2,0,0,1-1.45.51c-.53,0-1,0-1.3,0a3.46,3.46,0,0,1-.77-.11,1.58,1.58,0,0,1-.93-.67,2.13,2.13,0,0,1-.3-1.18V4.75H77.53a2,2,0,0,1-1.47-.52,2,2,0,0,1-.51-1.48,7.05,7.05,0,0,1,.06-1,2.28,2.28,0,0,1,.23-.71,1.39,1.39,0,0,1,.69-.59,2.48,2.48,0,0,1,1-.18h24.26a1.75,1.75,0,0,1,1.49.67h0a2.91,2.91,0,0,1,.48,1.79Zm-1.07.93a1.32,1.32,0,0,0,.28-.93,2.23,2.23,0,0,0-.31-1.31,1,1,0,0,0-.87-.36H77.53a1.94,1.94,0,0,0-.7.11.6.6,0,0,0-.3.26h0a1.37,1.37,0,0,0-.13.44,5.1,5.1,0,0,0,0,.85,1.28,1.28,0,0,0,.28.93,1.24,1.24,0,0,0,.91.28H87.79V23.65a1.35,1.35,0,0,0,.17.75.86.86,0,0,0,.49.35h0a3,3,0,0,0,.59.08c.31,0,.72,0,1.25,0a1.2,1.2,0,0,0,.88-.28,1.31,1.31,0,0,0,.28-.92V4h10.33A1.23,1.23,0,0,0,102.69,3.68Z"/><path class="cls-2" d="M72.89,19.15a6.28,6.28,0,0,1-.63,3.09q-1.67,3-10.11,3H46.65a1.39,1.39,0,0,1-1.55-1.59,3.26,3.26,0,0,1,.25-1.5,1.37,1.37,0,0,1,1.31-.58h15.5q6.27,0,6.27-2.34V17.11c0-1.52-2-2.34-6.06-2.48l-7.43-.24-1.49-.07-2.34-.13A8.34,8.34,0,0,1,47,12.6a4.61,4.61,0,0,1-1.9-3.82v-2a6.3,6.3,0,0,1,.63-3.09c1.11-2,4.49-3,10.11-3H71.3a1.39,1.39,0,0,1,1.55,1.59,3.23,3.23,0,0,1-.24,1.5,1.38,1.38,0,0,1-1.32.59H54.89q-5.36.32-5.37,2.52V8.14h0V8.6c0,1.06.92,1.76,2.74,2.08a12.62,12.62,0,0,0,1.52.15c.67,0,1.48.05,2.45.05h6A16.89,16.89,0,0,1,69,12c2.61,1.08,3.91,2.73,3.91,5Z"/><path class="cls-2" d="M73.28,19.15A9.34,9.34,0,0,1,73.12,21a4.85,4.85,0,0,1-.51,1.45A5.78,5.78,0,0,1,69,24.88a25,25,0,0,1-6.86.76H46.65a2,2,0,0,1-1.44-.51,2,2,0,0,1-.5-1.47,5.7,5.7,0,0,1,.07-1A2,2,0,0,1,45,22h0a1.45,1.45,0,0,1,.69-.6,2.37,2.37,0,0,1,1-.18h15.5a14,14,0,0,0,4.57-.56c.87-.32,1.31-.78,1.31-1.38V17.11c0-.58-.43-1.05-1.27-1.39A13.3,13.3,0,0,0,62.36,15c-2.69-.09-5.39-.16-8.07-.27l-.86,0-1.06-.06-1.29-.08h0A10,10,0,0,1,48.72,14a8.13,8.13,0,0,1-2-1.11h0a5.4,5.4,0,0,1-1.54-1.82h0a5.16,5.16,0,0,1-.51-2.31v-2a9.34,9.34,0,0,1,.16-1.84,5,5,0,0,1,.52-1.44,5.71,5.71,0,0,1,3.59-2.44A25,25,0,0,1,55.8.29H71.3a1.73,1.73,0,0,1,1.94,2,7,7,0,0,1-.06,1A2.26,2.26,0,0,1,73,4h0a1.42,1.42,0,0,1-.68.6,2.42,2.42,0,0,1-1,.18H54.91A11.1,11.1,0,0,0,51,5.52c-.74.35-1.11.81-1.11,1.37h0V8.6a1.21,1.21,0,0,0,.53,1,4.5,4.5,0,0,0,1.88.68c.18,0,.39.07.64.09l.83.06,1.1,0h7.31a24.12,24.12,0,0,1,3.9.28,12.5,12.5,0,0,1,3,.86,7.48,7.48,0,0,1,3.08,2.17A4.94,4.94,0,0,1,73.28,17v2.19Zm-.93,1.69a8.42,8.42,0,0,0,.15-1.69V17a4.19,4.19,0,0,0-.9-2.68,6.71,6.71,0,0,0-2.77-1.93h0a11.28,11.28,0,0,0-2.84-.8,23.57,23.57,0,0,0-3.77-.27h-6l-1.34,0c-.43,0-.8,0-1.13,0l-.86-.07-.71-.09A5.1,5.1,0,0,1,50,10.23a2,2,0,0,1-.84-1.63V6.89h0A2.29,2.29,0,0,1,50.7,4.81,11.69,11.69,0,0,1,54.87,4H71.29A1.57,1.57,0,0,0,72,3.85a.66.66,0,0,0,.32-.27,1.53,1.53,0,0,0,.13-.45,5.23,5.23,0,0,0,0-.86A1,1,0,0,0,71.3,1.08H55.8a24.44,24.44,0,0,0-6.63.73A5,5,0,0,0,46,3.88h0a4.12,4.12,0,0,0-.43,1.2,9.37,9.37,0,0,0-.14,1.69v2a4.31,4.31,0,0,0,.43,2,4.48,4.48,0,0,0,1.3,1.54,7.09,7.09,0,0,0,1.81,1,8.93,8.93,0,0,0,2.14.51l1.27.08,1.06.06h0l.85,0L55,14l7.43.24a14.26,14.26,0,0,1,4.68.75c1.18.48,1.77,1.19,1.77,2.12v2.13c0,1-.61,1.67-1.83,2.12a14.51,14.51,0,0,1-4.84.61H46.66a1.75,1.75,0,0,0-.66.11.65.65,0,0,0-.31.28,1.32,1.32,0,0,0-.14.45,6.47,6.47,0,0,0,0,.85,1.31,1.31,0,0,0,.27.92,1.22,1.22,0,0,0,.88.28h15.5a24.07,24.07,0,0,0,6.64-.74,5,5,0,0,0,3.13-2.07h0A4.18,4.18,0,0,0,72.35,20.84Z"/></g></g></svg>