<svg xmlns="http://www.w3.org/2000/svg" width="429.95" height="504.901" viewBox="0 0 429.95 504.901">
  <g id="surface1" transform="translate(0 0.001)" opacity="0.04">
    <path id="Path_2" data-name="Path 2" d="M429.449,136.992l-.015-.392c-.22-4.85-.366-9.982-.455-15.69a53.512,53.512,0,0,0-50.385-52.423c-58.051-3.24-102.958-22.169-141.329-59.569l-.327-.312a32.312,32.312,0,0,0-43.914,0l-.327.312c-38.37,37.4-83.278,56.329-141.329,59.572A53.509,53.509,0,0,0,.982,120.913C.9,126.583.747,131.714.528,136.6l-.023.912c-1.129,59.2-2.531,132.867,22.115,199.734,13.552,36.772,34.076,68.736,61,95.012,30.663,29.923,70.824,53.679,119.368,70.605a36.972,36.972,0,0,0,4.892,1.332,36.132,36.132,0,0,0,14.206,0,37.081,37.081,0,0,0,4.912-1.34c48.485-16.958,88.6-40.724,119.24-70.644,26.911-26.282,47.435-58.255,61-95.035C431.972,270.108,430.574,196.3,429.449,136.992ZM379.437,326.926C353.444,397.4,300.381,445.8,217.218,474.888a7.445,7.445,0,0,1-.94.254,6.648,6.648,0,0,1-2.6,0,7.381,7.381,0,0,1-.933-.25C129.492,445.859,76.394,397.484,50.42,327,27.7,265.366,28.991,197.739,30.127,138.078l.008-.331c.231-5.128.385-10.5.47-16.4A23.784,23.784,0,0,1,53.02,98.07c32.851-1.834,61.711-8.182,88.228-19.407,26.484-11.21,50-27.011,71.9-48.3a2.732,2.732,0,0,1,3.666,0c21.9,21.294,45.42,37.1,71.9,48.3,26.518,11.225,55.378,17.573,88.232,19.407a23.779,23.779,0,0,1,22.412,23.282c.089,5.932.243,11.3.473,16.394C400.963,197.477,402.219,265.158,379.437,326.926Zm0,0" fill="#727171"/>
    <path id="Path_3" data-name="Path 3" d="M216.227,128.41A125.83,125.83,0,1,0,342.055,254.239,125.971,125.971,0,0,0,216.227,128.41Zm0,222.031a96.2,96.2,0,1,1,96.2-96.2A96.31,96.31,0,0,1,216.227,350.441Zm0,0" transform="translate(-1.254 -1.781)" fill="#727171"/>
    <path id="Path_4" data-name="Path 4" d="M253.267,216.334l-58.444,58.443L178.96,258.914a14.813,14.813,0,1,0-20.951,20.947L184.35,306.2a14.813,14.813,0,0,0,20.947,0l68.922-68.921a14.813,14.813,0,1,0-20.951-20.947Zm0,0" transform="translate(-2.131 -2.94)" fill="#727171"/>
  </g>
</svg>
