<svg id="whatsapp" xmlns="http://www.w3.org/2000/svg" width="44" height="44" viewBox="0 0 44 44">
  <defs>
    <style>
      .cls-1 {
        fill: #eceff1;
      }

      .cls-2 {
        fill: #4caf50;
      }

      .cls-3 {
        fill: #fafafa;
      }
    </style>
  </defs>
  <path id="Path_40" data-name="Path 40" class="cls-1" d="M6.38,6.323A22.26,22.26,0,0,1,21.918,0C38.729,0,49.285,18.214,40.891,32.7L44,44,32.386,40.971a23.03,23.03,0,0,1-10.479,2.653c-19.494,0-29.2-23.584-15.5-37.229Z" transform="translate(0)"/>
  <path id="Path_41" data-name="Path 41" class="cls-2" d="M20.345,38.238l.011,0h.029a18.472,18.472,0,0,0,9.927-2.922L37.188,37.1l-1.842-6.682.438-.687a18.092,18.092,0,0,0,2.779-9.643c0-16.12-19.7-24.181-31.1-12.787C-3.908,18.576,4.076,38.238,20.345,38.238Z" transform="translate(1.532 1.638)"/>
  <path id="Path_42" data-name="Path 42" class="cls-3" d="M7.1,20.936l.017.137c.552-.275,3.239-1.589,3.74-1.771,1.124-.416.807-.066,2.964,2.405.321.357.64.385,1.184.137a14.879,14.879,0,0,0,4.405-2.722,16.633,16.633,0,0,0,3.043-3.795c.537-.928-.587-1.06-1.61-3a1.008,1.008,0,0,1,.046-.961c.138-.275,1.232-2.97,1.69-4.044.44-1.071.893-.935,1.232-.935a2.729,2.729,0,0,1,2.508.631C29.28,10.275,28.534,13.63,26,17.2c-4.976,6.512-7.627,7.711-12.474,9.376a7.585,7.585,0,0,1-3.447.222c-1.052-.167-3.239-1.322-3.7-2.614a4.538,4.538,0,0,1-.33-2.612c.136-.247.495-.385,1.045-.632Z" transform="translate(4.803 5.294)"/>
</svg>
